<?xml version="1.0" standalone="no"?>
<!DOCTYPE svg PUBLIC "-//W3C//DTD SVG 20010904//EN"
 "http://www.w3.org/TR/2001/REC-SVG-20010904/DTD/svg10.dtd">
<svg version="1.0" xmlns="http://www.w3.org/2000/svg"
 width="1024.000000pt" height="1024.000000pt" viewBox="0 0 1024.000000 1024.000000"
 preserveAspectRatio="xMidYMid meet">

<g transform="translate(0.000000,1024.000000) scale(0.100000,-0.100000)"
fill="#000000" stroke="none">
<path d="M2410 8674 c-81 -11 -210 -49 -286 -84 -270 -125 -461 -356 -535
-645 -32 -126 -32 -321 0 -450 37 -150 144 -349 233 -432 l24 -22 678 678 678
678 -56 49 c-113 98 -250 168 -401 205 -78 19 -265 32 -335 23z"/>
<path d="M7588 8670 c-102 -16 -181 -41 -275 -85 -101 -48 -154 -81 -226 -145
l-49 -43 678 -678 678 -678 24 22 c88 82 197 283 231 426 75 314 -5 632 -220
875 -111 126 -308 243 -479 286 -97 24 -275 34 -362 20z"/>
<path d="M4855 8309 c-530 -45 -1054 -228 -1497 -522 -194 -129 -337 -246
-498 -407 -542 -542 -866 -1244 -929 -2013 -52 -632 100 -1297 420 -1844 73
-124 181 -281 273 -398 93 -119 380 -406 487 -489 l77 -59 -109 -326 c-60
-179 -109 -327 -109 -328 0 -2 152 -2 337 -1 l336 3 50 150 c27 83 51 152 53
154 1 1 56 -20 121 -47 282 -121 555 -195 873 -239 174 -24 586 -24 760 0 316
43 620 127 881 242 57 25 106 42 110 37 4 -4 28 -73 55 -154 l48 -148 337 0
336 0 -103 318 c-57 174 -105 322 -107 328 -1 6 36 42 83 79 114 92 378 358
472 475 576 726 813 1628 663 2526 -195 1164 -1015 2125 -2135 2506 -398 135
-865 192 -1285 157z m620 -653 c274 -41 522 -118 760 -235 271 -134 447 -257
653 -456 231 -223 388 -436 528 -720 127 -257 202 -505 246 -810 17 -117 17
-511 0 -630 -43 -303 -119 -554 -246 -810 -386 -779 -1107 -1295 -1976 -1417
-124 -17 -516 -17 -635 0 -303 44 -551 119 -810 246 -775 382 -1295 1108
-1417 1976 -17 125 -17 515 0 640 64 453 234 869 504 1227 94 125 285 323 413
428 390 321 862 518 1375 574 118 13 484 5 605 -13z"/>
<path d="M4800 6012 l0 -1027 525 -525 525 -525 227 228 228 227 -433 433
-432 432 0 893 0 892 -320 0 -320 0 0 -1028z"/>
</g>
</svg>
