<?xml version="1.0" encoding="iso-8859-1"?>
<!-- Generator: Adobe Illustrator 16.0.0, SVG Export Plug-In . SVG Version: 6.00 Build 0)  -->
<!DOCTYPE svg PUBLIC "-//W3C//DTD SVG 1.1//EN" "http://www.w3.org/Graphics/SVG/1.1/DTD/svg11.dtd">
<svg version="1.1" id="Capa_1" xmlns="http://www.w3.org/2000/svg" xmlns:xlink="http://www.w3.org/1999/xlink" x="0px" y="0px"
	 width="34px" height="34px" viewBox="0 0 34 34" style="enable-background:new 0 0 34 34;" xml:space="preserve">
<g>
	<g>
		<path d="M27.91,2H27V1c0-0.553-0.447-1-1-1s-1,0.447-1,1v1h-7V1c0-0.553-0.447-1-1-1c-0.553,0-1,0.447-1,1v1H9V1
			c0-0.553-0.447-1-1-1S7,0.447,7,1v1H6.09C3.283,2,1,4.283,1,7.09v21.82C1,31.717,3.283,34,6.09,34h21.82
			c2.807,0,5.09-2.283,5.09-5.09V7.09C33,4.283,30.717,2,27.91,2z M31,28.91c0,1.704-1.387,3.09-3.09,3.09H6.09
			C4.386,32,3,30.614,3,28.91V12h28V28.91z M31,10H3V7.09C3,5.386,4.386,4,6.09,4H7v3c0,0.553,0.447,1,1,1s1-0.447,1-1V4h7v3
			c0,0.553,0.447,1,1,1c0.553,0,1-0.447,1-1V4h7v3c0,0.553,0.447,1,1,1s1-0.447,1-1V4h0.91C29.613,4,31,5.386,31,7.09V10z"/>
		<polygon points="29.18,24.037 25.609,24.037 25.609,22.799 28.79,22.799 28.79,21.491 25.609,21.491 25.609,20.355 29.09,20.355 
			29.09,19 23.917,19 23.917,25.491 29.18,25.491 		"/>
		<polygon points="18.754,21.443 18.773,21.443 21.027,25.491 22.764,25.491 22.764,19 21.173,19 21.173,23 21.154,23 18.9,19 
			17.164,19 17.164,25.491 18.754,25.491 		"/>
		<path d="M13.229,25.627c0.981,0,1.698-0.234,2.149-0.704s0.677-1.175,0.677-2.112V19h-1.69v3.909c0,0.419-0.085,0.731-0.255,0.944
			c-0.169,0.213-0.463,0.318-0.88,0.318c-0.419,0-0.712-0.105-0.882-0.318s-0.254-0.525-0.254-0.944V19h-1.691v3.811
			c0,0.938,0.226,1.644,0.677,2.112C11.531,25.393,12.247,25.627,13.229,25.627z"/>
		<path d="M5.221,24.949c0.175,0.215,0.408,0.381,0.7,0.5c0.291,0.117,0.651,0.178,1.082,0.178c1.515,0,2.272-0.729,2.272-2.191V19
			H7.584v4.328c0,0.312-0.052,0.533-0.158,0.656c-0.106,0.125-0.257,0.188-0.45,0.188c-0.212,0-0.375-0.059-0.486-0.175
			c-0.112-0.112-0.169-0.277-0.169-0.489v-0.6h-1.59v0.282c0,0.36,0.037,0.693,0.113,0.988C4.918,24.479,5.044,24.734,5.221,24.949z
			"/>
	</g>
</g>
<g>
</g>
<g>
</g>
<g>
</g>
<g>
</g>
<g>
</g>
<g>
</g>
<g>
</g>
<g>
</g>
<g>
</g>
<g>
</g>
<g>
</g>
<g>
</g>
<g>
</g>
<g>
</g>
<g>
</g>
</svg>
